<svg width="172" height="30" viewBox="0 0 172 30" fill="none" xmlns="http://www.w3.org/2000/svg">
<rect width="40.2837" height="30" rx="4" fill="white"/>
<path d="M5.75906 20.8696L8.09552 10.7609H10.5327L10.0694 13.6317L9.88814 13.4093C10.1567 12.4793 10.6401 11.7717 11.3384 11.2865C12.05 10.8013 12.8557 10.5587 13.7554 10.5587C14.4671 10.5587 15.0646 10.7204 15.548 11.0439C16.0448 11.3674 16.394 11.8324 16.5954 12.4389C16.7968 13.0454 16.7968 13.7733 16.5954 14.6224L15.1452 20.8696H12.3857L13.7755 14.8852C13.9367 14.2113 13.8897 13.6856 13.6345 13.3083C13.3794 12.9309 12.9698 12.7422 12.4059 12.7422C11.9493 12.7422 11.5465 12.85 11.1974 13.0656C10.8482 13.2678 10.5528 13.5711 10.3111 13.9754C10.0828 14.3798 9.89486 14.8785 9.74715 15.4715L8.5185 20.8696H5.75906ZM19.0325 20.8696L20.4022 14.8852C20.5633 14.2113 20.5163 13.6856 20.2612 13.3083C20.0061 12.9309 19.6032 12.7422 19.0527 12.7422C18.5961 12.7422 18.1933 12.85 17.8442 13.0656C17.4951 13.2678 17.1996 13.5711 16.9579 13.9754C16.7162 14.3798 16.5282 14.8785 16.394 15.4715L16.1925 13.7126C16.5417 12.6883 17.0855 11.9065 17.824 11.3674C18.576 10.8283 19.4152 10.5587 20.3418 10.5587C21.0669 10.5587 21.6778 10.7204 22.1747 11.0439C22.6715 11.3674 23.0206 11.8324 23.2221 12.4389C23.4235 13.0454 23.4302 13.7733 23.2422 14.6224L21.792 20.8696H19.0325Z" fill="#194867"/>
<path d="M24.593 25.2163C24.029 25.2163 23.5254 25.1489 23.0823 25.0141C22.6392 24.8928 22.2901 24.7311 22.0349 24.5289L22.8608 22.4869C23.3173 22.8913 23.8678 23.0935 24.5124 23.0935C24.9018 23.0935 25.2509 22.9991 25.5598 22.8104C25.8686 22.6352 26.1439 22.3522 26.3856 21.9613L26.9898 20.9909L25.2174 10.7609H27.9969L28.5206 16.3206L28.7422 18.8074L29.9708 16.4217L32.972 10.7609H35.9328L29.0443 22.123C28.6146 22.8643 28.1715 23.4641 27.7149 23.9224C27.2584 24.3806 26.775 24.7109 26.2647 24.913C25.7545 25.1152 25.1972 25.2163 24.593 25.2163Z" fill="#194867"/>
<path fill-rule="evenodd" clip-rule="evenodd" d="M100.608 18.6118C102.251 18.6118 102.758 19.6604 102.848 20.29L105.565 19.5405C105.266 17.9519 104.012 15.9444 100.668 15.9444C98.1004 15.9444 95.861 17.7122 95.861 20.2597C95.861 22.2678 97.2343 23.7662 99.5033 24.216L101.325 24.5459C102.221 24.7257 102.758 25.2052 102.758 25.8942C102.758 26.7339 102.041 27.3029 100.877 27.3029C99.0558 27.3029 98.2199 26.2241 98.1004 24.9951L95.3531 25.6544C95.5323 27.5729 97.1149 29.9703 100.818 29.9703C104.012 29.9703 105.774 27.8127 105.774 25.7144C105.774 23.7965 104.43 22.1479 101.892 21.6685L100.101 21.3391C99.1752 21.1587 98.7868 20.6799 98.7868 20.0502C98.7868 19.3008 99.5039 18.6118 100.608 18.6118ZM120.942 22.987C120.942 18.7317 117.747 15.9741 113.985 15.9741C110.223 15.9741 107.028 18.7014 107.028 22.987C107.028 27.2127 110.223 29.9703 113.985 29.9703C117.747 29.9703 120.942 27.243 120.942 22.987ZM113.985 27.0033C115.836 27.0033 117.837 25.744 117.837 22.9574C117.837 20.1701 115.836 18.8812 113.985 18.8812C112.104 18.8812 110.104 20.1405 110.104 22.9574C110.104 25.7743 112.134 27.0033 113.985 27.0033ZM122.973 16.2441V24.8456C122.973 28.2026 125.332 29.9703 128.287 29.9703C131.243 29.9703 133.602 28.202 133.602 24.8153V16.2441H130.616V24.5756C130.616 26.2241 129.721 27.0335 128.287 27.0335C126.854 27.0335 125.958 26.1938 125.958 24.5756V16.2441H122.973ZM140.499 24.8759H139.424V30H136.379V16.2441H141.783C144.501 16.2441 146.232 18.1021 146.232 20.5594C146.232 22.418 145.217 23.8261 143.515 24.4261L146.292 30H142.918L140.499 24.8753V24.8759ZM143.157 20.5594C143.157 21.5486 142.47 22.2382 141.216 22.2382V22.2079H139.424V18.8812H141.216C142.47 18.8812 143.157 19.5405 143.157 20.5594ZM147.964 22.987C147.964 18.7916 151.129 15.9444 154.861 15.9444C158.892 15.9444 160.654 18.5519 161.101 20.4698L158.295 21.3688C158.086 20.4395 157.25 18.8812 154.891 18.8812C153.099 18.8812 151.069 20.1701 151.069 22.987C151.069 25.5049 152.92 26.973 154.921 26.973C157.25 26.973 158.175 25.4147 158.444 24.4557L161.28 25.2652C160.833 27.1231 159.071 29.9703 154.921 29.9703C151.039 29.9703 147.964 27.1831 147.964 22.987ZM163.311 16.2441V29.9703H172V27.0632H166.356V24.4261H171.463V21.7284H166.356V19.121H171.97V16.2441H163.311ZM54.3579 16.0043C50.537 16.0043 47.4308 19.1512 47.4308 22.987C47.4308 26.8235 50.5364 29.9703 54.3579 29.9703C58.1799 29.9703 61.3151 26.8531 61.3151 23.0173C61.3151 19.1809 58.2095 16.0043 54.3579 16.0043ZM51.0436 22.987C51.0436 24.8154 52.5364 26.3143 54.3579 26.3143V26.3137C56.2089 26.3137 57.7023 24.8154 57.6721 22.987C57.674 22.1042 57.3255 21.2569 56.7035 20.6326C56.0816 20.0083 55.2375 19.6584 54.3579 19.6604C53.4783 19.6584 52.6342 20.0083 52.0122 20.6326C51.3903 21.2569 51.0417 22.1042 51.0436 22.987ZM71.9448 22.5978L65.3458 16.0044H63.8531V29.9703H67.496V23.3473L74.0642 29.9703H75.5576V16.0037H71.9448V22.5978ZM84.1565 16.0043H78.9315V25.0248H84.1565V16.0043Z" fill="white"/>
<path fill-rule="evenodd" clip-rule="evenodd" d="M54.5967 4.01622L58.9568 0H60.2409V10.7894H57.4043V5.27425L54.5961 7.85204L51.7601 5.30452V10.8197H48.9236V0H50.2077L54.5967 4.01622ZM63.8229 0H66.6595V10.7894H63.8229V0ZM73.0793 0H70.2427V10.7894H76.9605V7.94224H73.0793V0ZM80.3646 0H83.2012V10.7894H80.3646V0ZM95.0251 0H86.545V2.81693H89.3218V10.7894H92.1584V2.81693H95.0251V0ZM95.7121 10.8191L100.728 0.0302639H102.012L107.058 10.8191H104.221L103.564 9.41094H99.1753L98.5185 10.8191H95.7121ZM102.46 7.01295H100.28L101.385 4.64584L102.46 7.01295ZM115.866 10.8191L114.194 7.94224H112.433V10.8191H109.596V0H114.134C116.314 0 118.076 1.79804 118.076 3.95629C118.076 5.09444 117.568 6.14421 116.792 6.86342L119.061 10.7894H115.866V10.8191ZM113.626 5.48431H112.462V2.39738H113.626C114.039 2.39445 114.436 2.55775 114.728 2.85074C115.02 3.14373 115.182 3.54195 115.18 3.95628C115.18 4.79537 114.493 5.48431 113.626 5.48431ZM127.152 6.83315V10.7894H124.346V6.83315L120.435 0H123.689L125.749 3.59608L127.839 0H131.094L127.152 6.83315ZM92.7856 16.0044H85.6795V19.6906H92.7856V16.0044ZM85.6795 21.3391H92.7856V25.0254H85.6795V21.3391ZM92.785 26.6733H78.9309V29.9401H92.785V26.6733Z" fill="white"/>
</svg>
